<?xml version="1.0" encoding="UTF-8"?><svg id="_イヤー_1" xmlns="http://www.w3.org/2000/svg" viewBox="0 0 233.68 75.48"><defs><style>.cls-1{fill:#99413a;}.cls-2{fill:#9dc9cc;}.cls-3{fill:#3a9299;}.cls-4{fill:#a8a8a8;font-family:RoGSanSrfStd-Bd-83pv-RKSJ-H, 'Ro GSan Serif Std';font-size:8.15px;letter-spacing:.28em;}</style></defs><path class="cls-2" d="M231.78,34.72h-9.1c-.74,0-1.36-.53-1.52-1.26-2.59-12.29-13.51-21.54-26.57-21.54-8.36,0-15.86,3.8-20.84,9.77-.6,.72-1.5,1.12-2.43,1.12h-10.93c-.61,0-1.02-.64-.75-1.19C166.06,8.81,179.32,0,194.59,0c19.49,0,35.7,14.34,38.61,33.02,.14,.89-.52,1.7-1.42,1.7Z"/><path class="cls-3" d="M84.88,40.2c0-1.47,.73-2.2,2.2-2.2h17.23c1.47,0,2.2,.74,2.2,2.2v3.5c0,1.47-.73,2.2-2.2,2.2h-5.31c-1.47,0-2.2,.73-2.2,2.2v25.12c0,1.47-.74,2.26-2.2,2.26h-7.51c-1.47,0-2.2-.79-2.2-2.26V40.2Z"/><path class="cls-3" d="M140.02,37.99h-24.75c-1.47,0-2.2,.73-2.2,2.2v3.51c0,1.47,.73,2.2,2.2,2.2h19.44c1.47,0,2.2,.73,2.2,2.2v18.06c0,.9-.39,1.35-1.13,1.35h-8.59c-1.47,0-2.2-.73-2.2-2.2v-5.28c0-1.41,.67-2.15,2.03-2.2,.06-.01,.11-.01,.17-.01h4.42c1.36-.05,2.04-.79,2.04-2.2v-3.5c0-1.47-.74-2.21-2.21-2.21h-9.56c-5.87,0-8.81,2.94-8.81,8.82v7.88c0,5.87,2.94,8.87,8.81,8.87h24.75c1.47,0,2.2-.79,2.2-2.26v-26.42c0-5.87-2.93-8.81-8.81-8.81Z"/><path class="cls-1" d="M182.49,37.99h-9.58c-1.22,0-2.2,.98-2.2,2.2v3.51c0,1.22,.98,2.2,2.2,2.2h4.27c1.22,0,2.2,.98,2.2,2.2v17.21c0,1.22-.98,2.2-2.2,2.2h-7.52c-1.22,0-2.2-.98-2.2-2.2v-27.29c.15-3.74,1.05-7.29,2.56-10.49,.32-.68-.18-1.46-.93-1.46h-9.91c-.85,0-1.62,.54-1.88,1.35-1.08,3.43-1.69,7.05-1.76,10.8-.02,.28-.02,.57-.02,.85v15.08h.02v19.07c0,1.25,1.01,2.26,2.26,2.26h24.69c4.87,0,8.81-3.94,8.81-8.81v-19.87c0-4.87-3.94-8.81-8.81-8.81Z"/><path class="cls-3" d="M69.39,37.99h-18.13c-5.88,0-8.82,2.94-8.82,8.81v9.96c0,.12,.01,.23,.02,.35,.1,1.24,.84,1.85,2.19,1.85h7.52c1.34,0,2.08-.62,2.18-1.86,.01-.04,.01-.08,.01-.12v-8.88c0-1.47,.74-2.2,2.21-2.2h7.51c1.47,0,2.21,.73,2.21,2.2v17.21c0,1.47-.74,2.2-2.21,2.2h-7.51c-1.41,0-2.15-.67-2.2-2.03-.01-.06-.01-.11-.01-.17v-1.11s0-.08-.01-.12c-.1-1.24-.84-1.86-2.18-1.86h-7.52c-1.35,0-2.08,.62-2.18,1.86-.02,.11-.02,.22-.02,.34v2.55c.11,5.63,3.05,8.51,8.81,8.51h18.13c1.6,0,2.98-.22,4.15-.68,3.11-1.17,4.67-3.92,4.67-8.19v-19.81c0-5.87-2.94-8.81-8.82-8.81Z"/><path class="cls-1" d="M224.86,37.99h-18.13c-5.88,0-8.82,2.94-8.82,8.81v9.96c0,.12,.01,.23,.02,.35,.1,1.24,.84,1.85,2.19,1.85h7.52c1.34,0,2.08-.62,2.18-1.86,.01-.04,.01-.08,.01-.12v-8.88c0-1.47,.74-2.2,2.21-2.2h7.51c1.47,0,2.21,.73,2.21,2.2v17.21c0,1.47-.74,2.2-2.21,2.2h-7.51c-1.41,0-2.15-.67-2.2-2.03-.01-.06-.01-.11-.01-.17v-1.11s0-.08-.01-.12c-.1-1.24-.84-1.86-2.18-1.86h-7.52c-1.35,0-2.08,.62-2.18,1.86-.02,.11-.02,.22-.02,.34v2.55c.11,5.63,3.05,8.51,8.81,8.51h18.13c1.6,0,2.98-.22,4.15-.68,3.11-1.17,4.67-3.92,4.67-8.19v-19.81c0-5.87-2.94-8.81-8.82-8.81Z"/><path class="cls-3" d="M24,37.72H11.77c-6.5,0-11.77,5.27-11.77,11.77v23.73c0,1.25,1.01,2.26,2.26,2.26h7.46c1.22,0,2.21-.99,2.21-2.21v-22.65c0-2.11,1.71-3.82,3.82-3.82h4.28c2.11,0,3.82,1.71,3.82,3.82v22.6c0,1.25,1.01,2.26,2.26,2.26h7.46c1.22,0,2.2-.98,2.2-2.2v-23.79c0-6.5-5.27-11.77-11.77-11.77Z"/><text class="cls-4" transform="translate(1.46 30.38)"><tspan x="0" y="0">つながらないゲームマッチング</tspan></text></svg>